<svg width="202" height="202" viewBox="0 0 202 202" fill="none" xmlns="http://www.w3.org/2000/svg">
<path d="M101 0C45.3081 0 0 45.3081 0 101C0 110.375 1.3047 119.703 3.88048 128.722C4.94979 132.474 6.09309 135.77 7.28346 138.567C8.04342 140.571 8.9177 142.576 9.84579 144.519C11.7692 148.568 14.0423 152.596 16.6248 156.51C35.4018 184.992 66.95 202 101 202C156.692 202 202 156.699 202 101C202 45.3014 156.692 0 101 0ZM101 187.904C73.2785 187.904 47.4871 174.803 31.0976 152.63H161.124C162.018 152.63 162.819 152.347 163.478 151.695C164.09 151.083 164.413 150.276 164.413 149.341C164.372 128.809 157.512 108.371 145.676 93.2054C133.362 77.4212 117.067 68.7793 99.8702 68.7793C75.9686 68.7793 53.9232 85.7673 42.6583 112.608C42.1674 113.778 40.3718 119.111 39.9212 120.322H56.9226C57.5077 119.118 59.4446 113.791 60.0768 112.641C61.785 109.534 63.6882 106.636 65.8134 103.966C75.1615 91.9949 87.2401 85.3638 99.8702 85.3638C112.46 85.3638 124.485 91.9949 133.88 103.966C140.41 112.42 145.158 122.951 147.418 134.317C147.559 134.788 147.418 135.211 147.182 135.487C146.893 135.817 146.476 136.059 146.053 136.059H21.4738C21.0904 135.185 20.7205 134.277 20.3439 133.315C19.2948 130.82 18.3398 128.069 17.4319 124.868C15.2125 117.1 14.0894 109.077 14.0894 101.013C14.0894 53.096 53.0691 14.1096 100.993 14.1096C148.918 14.1096 187.897 53.0825 187.897 101C187.897 148.918 148.918 187.904 101 187.904Z" fill="#1167E8"/>
<path d="M115.99 54.8109H89.607C87.7912 54.8109 86.3184 53.3381 86.3184 51.5222V48.6774C86.3184 46.8616 87.7912 45.3888 89.607 45.3888H115.99C117.806 45.3888 119.279 46.8616 119.279 48.6774V51.5222C119.272 53.3448 117.799 54.8109 115.99 54.8109Z" fill="#1167E8"/>
</svg>